<mxfile host="app.diagrams.net" modified="2021-11-09T17:39:21.438Z" agent="5.0 (Windows NT 10.0; Win64; x64) AppleWebKit/537.36 (KHTML, like Gecko) Chrome/95.0.4638.69 Safari/537.36" etag="BN7sRKJFb8I15W-2zVXw" version="15.6.8" type="github">
  <diagram id="SLMzsR0E3EUHvdBKZ5yB" name="Page-1">
    <mxGraphModel dx="3671" dy="3926" grid="1" gridSize="10" guides="1" tooltips="1" connect="1" arrows="1" fold="1" page="1" pageScale="1" pageWidth="827" pageHeight="1169" math="0" shadow="0">
      <root>
        <mxCell id="0" />
        <mxCell id="1" parent="0" />
        <mxCell id="NOSZl9h-h4cG2daDXrsb-22" value="&lt;p style=&quot;margin: 0px ; margin-top: 4px ; text-align: center&quot;&gt;&lt;b&gt;User&lt;/b&gt;&lt;/p&gt;&lt;hr size=&quot;1&quot;&gt;&lt;p style=&quot;margin: 0px ; margin-left: 4px&quot;&gt;...&lt;/p&gt;&lt;hr size=&quot;1&quot;&gt;&lt;p style=&quot;margin: 0px ; margin-left: 4px&quot;&gt;...&lt;/p&gt;" style="verticalAlign=top;align=left;overflow=fill;fontSize=12;fontFamily=Helvetica;html=1;spacingLeft=0;spacingRight=0;spacing=2;" vertex="1" parent="1">
          <mxGeometry x="1030" y="-1190" width="80" height="100" as="geometry" />
        </mxCell>
        <mxCell id="NOSZl9h-h4cG2daDXrsb-28" value="&lt;p style=&quot;margin: 0px ; margin-top: 4px ; text-align: center&quot;&gt;&lt;b&gt;&lt;font style=&quot;font-size: 10px&quot;&gt;&amp;lt;&amp;lt;Interface&amp;gt;&amp;gt;&lt;/font&gt;&lt;/b&gt;&lt;/p&gt;&lt;p style=&quot;margin: 0px ; margin-top: 4px ; text-align: center&quot;&gt;&lt;b&gt;IRegistration&lt;/b&gt;&lt;/p&gt;&lt;hr size=&quot;1&quot;&gt;&lt;p style=&quot;margin: 0px ; margin-left: 4px&quot;&gt;&lt;span&gt;+ validateUser(usr: User): boolean&lt;/span&gt;&lt;/p&gt;&lt;p style=&quot;margin: 0px ; margin-left: 4px&quot;&gt;&lt;span&gt;+ registerUser(new: User): boolean&lt;/span&gt;&lt;/p&gt;" style="verticalAlign=top;align=left;overflow=fill;fontSize=12;fontFamily=Helvetica;html=1;spacingLeft=0;spacingRight=0;spacing=2;" vertex="1" parent="1">
          <mxGeometry x="105" y="-1190" width="210" height="110" as="geometry" />
        </mxCell>
        <mxCell id="NOSZl9h-h4cG2daDXrsb-29" value="&lt;p style=&quot;margin: 0px ; margin-top: 4px ; text-align: center&quot;&gt;&lt;b&gt;&lt;font style=&quot;font-size: 10px&quot;&gt;&amp;lt;&amp;lt;Interface&amp;gt;&amp;gt;&lt;/font&gt;&lt;/b&gt;&lt;/p&gt;&lt;p style=&quot;margin: 0px ; margin-top: 4px ; text-align: center&quot;&gt;&lt;b&gt;ILogin&lt;/b&gt;&lt;/p&gt;&lt;hr size=&quot;1&quot;&gt;&lt;p style=&quot;margin: 0px ; margin-left: 4px&quot;&gt;&lt;span&gt;+ findUserWithCredentials(cred: Credentials, flags: byte): User&lt;/span&gt;&lt;/p&gt;" style="verticalAlign=top;align=left;overflow=fill;fontSize=12;fontFamily=Helvetica;html=1;spacingLeft=0;spacingRight=0;spacing=2;" vertex="1" parent="1">
          <mxGeometry x="30" y="-1060" width="360" height="90" as="geometry" />
        </mxCell>
        <mxCell id="NOSZl9h-h4cG2daDXrsb-30" value="&lt;p style=&quot;margin: 0px ; margin-top: 4px ; text-align: center&quot;&gt;&lt;b&gt;FakeDataSource&lt;/b&gt;&lt;/p&gt;&lt;hr size=&quot;1&quot;&gt;&lt;p style=&quot;margin: 0px ; margin-left: 4px&quot;&gt;&lt;br&gt;&lt;/p&gt;&lt;hr size=&quot;1&quot;&gt;&lt;p style=&quot;margin: 0px ; margin-left: 4px&quot;&gt;+ FakeDataSource(): cstr&lt;/p&gt;&lt;p style=&quot;margin: 0px ; margin-left: 4px&quot;&gt;+ AddUser(new: User): boolean&lt;/p&gt;" style="verticalAlign=top;align=left;overflow=fill;fontSize=12;fontFamily=Helvetica;html=1;spacingLeft=0;spacingRight=0;spacing=2;" vertex="1" parent="1">
          <mxGeometry x="-300" y="-1020" width="260" height="140" as="geometry" />
        </mxCell>
        <mxCell id="NOSZl9h-h4cG2daDXrsb-31" value="&lt;p style=&quot;margin: 0px ; margin-top: 4px ; text-align: center&quot;&gt;&lt;b&gt;UserCreationFlags&lt;/b&gt;&lt;/p&gt;&lt;p style=&quot;margin: 0px ; margin-top: 4px ; text-align: center&quot;&gt;&lt;b&gt;&lt;font style=&quot;font-size: 10px&quot;&gt;&amp;lt;&amp;lt;enum&amp;gt;&amp;gt;&lt;/font&gt;&lt;/b&gt;&lt;/p&gt;&lt;hr size=&quot;1&quot;&gt;&lt;p style=&quot;margin: 0px ; margin-left: 4px&quot;&gt;PERSONAL_DATA = 1,&lt;/p&gt;&lt;p style=&quot;margin: 0px ; margin-left: 4px&quot;&gt;CONTACT = 2,&lt;/p&gt;&lt;p style=&quot;margin: 0px ; margin-left: 4px&quot;&gt;CREDENTIALS = 4,&lt;/p&gt;&lt;p style=&quot;margin: 0px ; margin-left: 4px&quot;&gt;GAME_STATE = 8&lt;/p&gt;&lt;p style=&quot;margin: 0px ; margin-left: 4px&quot;&gt;STATISTICS = 16&lt;br&gt;&lt;/p&gt;" style="verticalAlign=top;align=left;overflow=fill;fontSize=12;fontFamily=Helvetica;html=1;spacingLeft=0;spacingRight=0;spacing=2;" vertex="1" parent="1">
          <mxGeometry x="-400" y="-1320" width="160" height="151" as="geometry" />
        </mxCell>
        <mxCell id="NOSZl9h-h4cG2daDXrsb-32" value="This enum is supposed &lt;br&gt;to be&amp;nbsp;used as flags for &lt;br&gt;retrieval of users from&lt;br&gt;database. Determines &lt;br&gt;which parts of user &lt;br&gt;profile should be retrived." style="html=1;verticalAlign=top;fillColor=#dae8fc;strokeColor=#6c8ebf;" vertex="1" parent="1">
          <mxGeometry x="-400" y="-1160" width="159" height="100" as="geometry" />
        </mxCell>
        <mxCell id="NOSZl9h-h4cG2daDXrsb-33" value="&lt;p style=&quot;margin: 0px ; margin-top: 4px ; text-align: center&quot;&gt;&lt;b&gt;DatabaseDataSource&lt;/b&gt;&lt;br&gt;&lt;/p&gt;&lt;hr size=&quot;1&quot;&gt;&lt;p style=&quot;margin: 0px ; margin-left: 4px&quot;&gt;- connection_string: string&lt;/p&gt;&lt;hr size=&quot;1&quot;&gt;&lt;p style=&quot;margin: 0px ; margin-left: 4px&quot;&gt;+ DatabaseDataSource(): cstr&lt;/p&gt;&lt;p style=&quot;margin: 0px ; margin-left: 4px&quot;&gt;+ DatabaseDataSource(con: string): cstr&lt;/p&gt;" style="verticalAlign=top;align=left;overflow=fill;fontSize=12;fontFamily=Helvetica;html=1;spacingLeft=0;spacingRight=0;spacing=2;" vertex="1" parent="1">
          <mxGeometry x="490" y="-970" width="260" height="100" as="geometry" />
        </mxCell>
        <mxCell id="NOSZl9h-h4cG2daDXrsb-34" style="edgeStyle=orthogonalEdgeStyle;orthogonalLoop=1;jettySize=auto;html=1;entryX=0;entryY=0.5;entryDx=0;entryDy=0;endArrow=none;endFill=0;dashed=1;exitX=1;exitY=0.5;exitDx=0;exitDy=0;startArrow=block;startFill=0;" edge="1" parent="1" source="NOSZl9h-h4cG2daDXrsb-29" target="NOSZl9h-h4cG2daDXrsb-33">
          <mxGeometry relative="1" as="geometry">
            <mxPoint x="1850" y="-910" as="sourcePoint" />
            <mxPoint x="1790" y="-867.5" as="targetPoint" />
          </mxGeometry>
        </mxCell>
        <mxCell id="NOSZl9h-h4cG2daDXrsb-43" style="edgeStyle=orthogonalEdgeStyle;orthogonalLoop=1;jettySize=auto;html=1;entryX=0;entryY=0.25;entryDx=0;entryDy=0;endArrow=none;endFill=0;dashed=1;exitX=1;exitY=0.5;exitDx=0;exitDy=0;startArrow=block;startFill=0;" edge="1" parent="1" source="NOSZl9h-h4cG2daDXrsb-28" target="NOSZl9h-h4cG2daDXrsb-33">
          <mxGeometry relative="1" as="geometry">
            <mxPoint x="450" y="-990" as="sourcePoint" />
            <mxPoint x="520" y="-910" as="targetPoint" />
            <Array as="points">
              <mxPoint x="450" y="-1135" />
              <mxPoint x="450" y="-945" />
            </Array>
          </mxGeometry>
        </mxCell>
        <mxCell id="NOSZl9h-h4cG2daDXrsb-44" value="&lt;p style=&quot;margin: 0px ; margin-top: 4px ; text-align: center&quot;&gt;&lt;b&gt;System&lt;/b&gt;&lt;/p&gt;&lt;hr size=&quot;1&quot;&gt;&lt;p style=&quot;margin: 0px ; margin-left: 4px&quot;&gt;...&lt;/p&gt;&lt;hr size=&quot;1&quot;&gt;&lt;p style=&quot;margin: 0px ; margin-left: 4px&quot;&gt;...&lt;/p&gt;" style="verticalAlign=top;align=left;overflow=fill;fontSize=12;fontFamily=Helvetica;html=1;spacingLeft=0;spacingRight=0;spacing=2;" vertex="1" parent="1">
          <mxGeometry x="490" y="-1210" width="150" height="100" as="geometry" />
        </mxCell>
        <mxCell id="NOSZl9h-h4cG2daDXrsb-45" style="edgeStyle=orthogonalEdgeStyle;orthogonalLoop=1;jettySize=auto;html=1;endArrow=open;endFill=0;exitX=0.5;exitY=1;exitDx=0;exitDy=0;entryX=0.5;entryY=0;entryDx=0;entryDy=0;jumpStyle=none;flowAnimation=0;ignoreEdge=0;bendable=1;" edge="1" parent="1" source="NOSZl9h-h4cG2daDXrsb-44" target="NOSZl9h-h4cG2daDXrsb-33">
          <mxGeometry relative="1" as="geometry">
            <mxPoint x="560" y="-1110" as="sourcePoint" />
            <Array as="points">
              <mxPoint x="565" y="-1040" />
              <mxPoint x="620" y="-1040" />
            </Array>
            <mxPoint x="560" y="-990" as="targetPoint" />
          </mxGeometry>
        </mxCell>
        <mxCell id="NOSZl9h-h4cG2daDXrsb-46" value="&amp;nbsp;-data_source&amp;nbsp;" style="edgeLabel;html=1;align=center;verticalAlign=middle;resizable=0;points=[];" vertex="1" connectable="0" parent="NOSZl9h-h4cG2daDXrsb-45">
          <mxGeometry x="0.1256" y="3" relative="1" as="geometry">
            <mxPoint as="offset" />
          </mxGeometry>
        </mxCell>
        <mxCell id="NOSZl9h-h4cG2daDXrsb-47" style="edgeStyle=orthogonalEdgeStyle;orthogonalLoop=1;jettySize=auto;html=1;endArrow=open;endFill=0;exitX=1;exitY=0.5;exitDx=0;exitDy=0;entryX=0;entryY=0.25;entryDx=0;entryDy=0;" edge="1" parent="1" source="NOSZl9h-h4cG2daDXrsb-44" target="NOSZl9h-h4cG2daDXrsb-22">
          <mxGeometry relative="1" as="geometry">
            <mxPoint x="575" y="-1100" as="sourcePoint" />
            <Array as="points">
              <mxPoint x="660" y="-1160" />
              <mxPoint x="660" y="-1138" />
              <mxPoint x="1000" y="-1138" />
            </Array>
            <mxPoint x="575" y="-960" as="targetPoint" />
          </mxGeometry>
        </mxCell>
        <mxCell id="NOSZl9h-h4cG2daDXrsb-48" value="&amp;nbsp;-users[]&amp;nbsp;" style="edgeLabel;html=1;align=center;verticalAlign=middle;resizable=0;points=[];" vertex="1" connectable="0" parent="NOSZl9h-h4cG2daDXrsb-47">
          <mxGeometry x="0.1256" y="3" relative="1" as="geometry">
            <mxPoint as="offset" />
          </mxGeometry>
        </mxCell>
        <mxCell id="NOSZl9h-h4cG2daDXrsb-49" value="&lt;p style=&quot;margin: 0px ; margin-top: 4px ; text-align: center&quot;&gt;&lt;b&gt;&lt;font style=&quot;font-size: 10px&quot;&gt;&amp;lt;&amp;lt;Interface&amp;gt;&amp;gt;&lt;/font&gt;&lt;/b&gt;&lt;/p&gt;&lt;p style=&quot;margin: 0px ; margin-top: 4px ; text-align: center&quot;&gt;&lt;b&gt;IUserSource&lt;/b&gt;&lt;/p&gt;&lt;hr size=&quot;1&quot;&gt;&lt;p style=&quot;margin: 0px ; margin-left: 4px&quot;&gt;&lt;span&gt;+ findUserById(id: int, flags: byte): User[]&lt;/span&gt;&lt;br&gt;&lt;/p&gt;&lt;p style=&quot;margin: 0px ; margin-left: 4px&quot;&gt;&lt;span&gt;+ findUsersByKeyword(keyword: string, flags: byte): User[]&lt;/span&gt;&lt;/p&gt;&lt;p style=&quot;margin: 0px ; margin-left: 4px&quot;&gt;&lt;span&gt;+ createUser(usr: User): boolean&lt;/span&gt;&lt;/p&gt;&lt;p style=&quot;margin: 0px ; margin-left: 4px&quot;&gt;&lt;span&gt;+ getAllUsers(flags: byte): User[]&lt;/span&gt;&lt;/p&gt;&lt;p style=&quot;margin: 0px ; margin-left: 4px&quot;&gt;&lt;span&gt;+ updateUser(usr: User): boolean&lt;/span&gt;&lt;/p&gt;&lt;p style=&quot;margin: 0px ; margin-left: 4px&quot;&gt;&lt;span&gt;+ deleteUser(user_id: int): boolean&lt;/span&gt;&lt;/p&gt;&lt;p style=&quot;margin: 0px ; margin-left: 4px&quot;&gt;&lt;span&gt;&lt;br&gt;&lt;/span&gt;&lt;/p&gt;&lt;p style=&quot;margin: 0px ; margin-left: 4px&quot;&gt;&lt;span&gt;&lt;br&gt;&lt;/span&gt;&lt;/p&gt;" style="verticalAlign=top;align=left;overflow=fill;fontSize=12;fontFamily=Helvetica;html=1;spacingLeft=0;spacingRight=0;spacing=2;" vertex="1" parent="1">
          <mxGeometry x="30" y="-940" width="360" height="140" as="geometry" />
        </mxCell>
        <mxCell id="NOSZl9h-h4cG2daDXrsb-50" value="&lt;p style=&quot;margin: 0px ; margin-top: 4px ; text-align: center&quot;&gt;&lt;b&gt;&lt;font style=&quot;font-size: 10px&quot;&gt;&amp;lt;&amp;lt;Interface&amp;gt;&amp;gt;&lt;/font&gt;&lt;/b&gt;&lt;/p&gt;&lt;p style=&quot;margin: 0px ; margin-top: 4px ; text-align: center&quot;&gt;&lt;b&gt;IGameStateSource&lt;/b&gt;&lt;/p&gt;&lt;hr size=&quot;1&quot;&gt;&lt;p style=&quot;margin: 0px ; margin-left: 4px&quot;&gt;&lt;span&gt;+ retrieveUsersGameState(usr_nr: int): GameState&lt;/span&gt;&lt;/p&gt;&lt;p style=&quot;margin: 0px ; margin-left: 4px&quot;&gt;&lt;span&gt;+ saveGame(game_state: : GameState): boolean&lt;/span&gt;&lt;/p&gt;" style="verticalAlign=top;align=left;overflow=fill;fontSize=12;fontFamily=Helvetica;html=1;spacingLeft=0;spacingRight=0;spacing=2;" vertex="1" parent="1">
          <mxGeometry x="55" y="-710" width="280" height="110" as="geometry" />
        </mxCell>
        <mxCell id="NOSZl9h-h4cG2daDXrsb-51" style="edgeStyle=orthogonalEdgeStyle;orthogonalLoop=1;jettySize=auto;html=1;entryX=0;entryY=0.68;entryDx=0;entryDy=0;endArrow=none;endFill=0;dashed=1;exitX=1;exitY=0.25;exitDx=0;exitDy=0;startArrow=block;startFill=0;entryPerimeter=0;" edge="1" parent="1" source="NOSZl9h-h4cG2daDXrsb-49" target="NOSZl9h-h4cG2daDXrsb-33">
          <mxGeometry relative="1" as="geometry">
            <mxPoint x="420" y="-990" as="sourcePoint" />
            <mxPoint x="500" y="-910" as="targetPoint" />
          </mxGeometry>
        </mxCell>
        <mxCell id="NOSZl9h-h4cG2daDXrsb-52" style="edgeStyle=orthogonalEdgeStyle;orthogonalLoop=1;jettySize=auto;html=1;entryX=-0.007;entryY=0.84;entryDx=0;entryDy=0;endArrow=none;endFill=0;dashed=1;exitX=1;exitY=0.25;exitDx=0;exitDy=0;startArrow=block;startFill=0;entryPerimeter=0;strokeColor=default;" edge="1" parent="1" source="NOSZl9h-h4cG2daDXrsb-50" target="NOSZl9h-h4cG2daDXrsb-33">
          <mxGeometry relative="1" as="geometry">
            <mxPoint x="430" y="-980" as="sourcePoint" />
            <mxPoint x="510" y="-900" as="targetPoint" />
            <Array as="points">
              <mxPoint x="440" y="-682" />
              <mxPoint x="440" y="-886" />
            </Array>
          </mxGeometry>
        </mxCell>
        <mxCell id="NOSZl9h-h4cG2daDXrsb-53" value="Function finUsersByKeyword&amp;nbsp;&lt;br&gt;searches for users with&amp;nbsp;firstname, &lt;br&gt;lastname, username or email with &lt;br&gt;matching keyword" style="html=1;verticalAlign=top;fillColor=#dae8fc;strokeColor=#6c8ebf;" vertex="1" parent="1">
          <mxGeometry x="90" y="-795" width="210" height="65" as="geometry" />
        </mxCell>
        <mxCell id="NOSZl9h-h4cG2daDXrsb-54" style="edgeStyle=orthogonalEdgeStyle;orthogonalLoop=1;jettySize=auto;html=1;entryX=1;entryY=0.25;entryDx=0;entryDy=0;endArrow=none;endFill=0;dashed=1;exitX=0;exitY=0.5;exitDx=0;exitDy=0;startArrow=block;startFill=0;" edge="1" parent="1" source="NOSZl9h-h4cG2daDXrsb-28" target="NOSZl9h-h4cG2daDXrsb-30">
          <mxGeometry relative="1" as="geometry">
            <mxPoint x="325" y="-1125" as="sourcePoint" />
            <mxPoint x="500" y="-935" as="targetPoint" />
            <Array as="points">
              <mxPoint x="105" y="-1125" />
              <mxPoint x="-10" y="-1125" />
              <mxPoint x="-10" y="-975" />
            </Array>
          </mxGeometry>
        </mxCell>
        <mxCell id="NOSZl9h-h4cG2daDXrsb-55" style="edgeStyle=orthogonalEdgeStyle;orthogonalLoop=1;jettySize=auto;html=1;entryX=1;entryY=0.5;entryDx=0;entryDy=0;endArrow=none;endFill=0;dashed=1;startArrow=block;startFill=0;exitX=0;exitY=0.5;exitDx=0;exitDy=0;" edge="1" parent="1" source="NOSZl9h-h4cG2daDXrsb-29" target="NOSZl9h-h4cG2daDXrsb-30">
          <mxGeometry relative="1" as="geometry">
            <mxPoint x="100" y="-1090" as="sourcePoint" />
            <mxPoint x="-30" y="-965" as="targetPoint" />
            <Array as="points">
              <mxPoint y="-1015" />
              <mxPoint y="-950" />
            </Array>
          </mxGeometry>
        </mxCell>
        <mxCell id="NOSZl9h-h4cG2daDXrsb-56" style="edgeStyle=orthogonalEdgeStyle;orthogonalLoop=1;jettySize=auto;html=1;entryX=1;entryY=0.75;entryDx=0;entryDy=0;endArrow=none;endFill=0;dashed=1;startArrow=block;startFill=0;exitX=0;exitY=0.25;exitDx=0;exitDy=0;" edge="1" parent="1" source="NOSZl9h-h4cG2daDXrsb-49" target="NOSZl9h-h4cG2daDXrsb-30">
          <mxGeometry relative="1" as="geometry">
            <mxPoint x="40" y="-1005" as="sourcePoint" />
            <mxPoint x="-30" y="-940" as="targetPoint" />
            <Array as="points">
              <mxPoint x="10" y="-905" />
              <mxPoint x="10" y="-925" />
            </Array>
          </mxGeometry>
        </mxCell>
        <mxCell id="NOSZl9h-h4cG2daDXrsb-57" style="edgeStyle=orthogonalEdgeStyle;orthogonalLoop=1;jettySize=auto;html=1;entryX=0.999;entryY=0.864;entryDx=0;entryDy=0;endArrow=none;endFill=0;dashed=1;startArrow=block;startFill=0;exitX=0;exitY=0.25;exitDx=0;exitDy=0;entryPerimeter=0;" edge="1" parent="1" source="NOSZl9h-h4cG2daDXrsb-50" target="NOSZl9h-h4cG2daDXrsb-30">
          <mxGeometry relative="1" as="geometry">
            <mxPoint x="50" y="-995" as="sourcePoint" />
            <mxPoint x="-20" y="-930" as="targetPoint" />
            <Array as="points">
              <mxPoint x="-10" y="-682" />
              <mxPoint x="-10" y="-914" />
              <mxPoint x="-40" y="-914" />
            </Array>
          </mxGeometry>
        </mxCell>
        <mxCell id="NOSZl9h-h4cG2daDXrsb-58" value="&amp;nbsp;-users[]&amp;nbsp;" style="edgeStyle=orthogonalEdgeStyle;orthogonalLoop=1;jettySize=auto;html=1;endArrow=open;endFill=0;entryX=0.5;entryY=1;entryDx=0;entryDy=0;exitX=0.5;exitY=1;exitDx=0;exitDy=0;" edge="1" parent="1" source="NOSZl9h-h4cG2daDXrsb-30" target="NOSZl9h-h4cG2daDXrsb-22">
          <mxGeometry relative="1" as="geometry">
            <mxPoint x="1230" y="-1095" as="sourcePoint" />
            <Array as="points">
              <mxPoint x="-170" y="-560" />
              <mxPoint x="965" y="-560" />
              <mxPoint x="965" y="-1069" />
            </Array>
            <mxPoint x="1400" y="-1080" as="targetPoint" />
          </mxGeometry>
        </mxCell>
        <mxCell id="NOSZl9h-h4cG2daDXrsb-89" value="&lt;p style=&quot;margin: 0px ; margin-top: 4px ; text-align: center&quot;&gt;&lt;b&gt;&lt;font style=&quot;font-size: 10px&quot;&gt;&amp;lt;&amp;lt;Interface&amp;gt;&amp;gt;&lt;/font&gt;&lt;/b&gt;&lt;/p&gt;&lt;p style=&quot;margin: 0px ; margin-top: 4px ; text-align: center&quot;&gt;&lt;b&gt;IAssetsSource&lt;/b&gt;&lt;/p&gt;&lt;hr size=&quot;1&quot;&gt;&lt;p style=&quot;margin: 0px ; margin-left: 4px&quot;&gt;&lt;span&gt;+ getResource(id: int): Resource&lt;/span&gt;&lt;/p&gt;&lt;p style=&quot;margin: 0px ; margin-left: 4px&quot;&gt;&lt;span&gt;+ getAllResources(): Resource[]&lt;/span&gt;&lt;/p&gt;&lt;p style=&quot;margin: 0px ; margin-left: 4px&quot;&gt;&lt;span&gt;+ getBuilding(id: int): Building&lt;/span&gt;&lt;/p&gt;&lt;p style=&quot;margin: 0px ; margin-left: 4px&quot;&gt;&lt;span&gt;+ getAllBuildings(): Building[]&lt;/span&gt;&lt;/p&gt;&lt;p style=&quot;margin: 0px ; margin-left: 4px&quot;&gt;&lt;span&gt;+ getUpgrade(id: int): Upgrade&lt;/span&gt;&lt;/p&gt;&lt;p style=&quot;margin: 0px ; margin-left: 4px&quot;&gt;&lt;span&gt;+ getAllUpgrades(): Uprgade[]&lt;/span&gt;&lt;/p&gt;" style="verticalAlign=top;align=left;overflow=fill;fontSize=12;fontFamily=Helvetica;html=1;spacingLeft=0;spacingRight=0;spacing=2;" vertex="1" parent="1">
          <mxGeometry x="30" y="-1359" width="360" height="149" as="geometry" />
        </mxCell>
        <mxCell id="NOSZl9h-h4cG2daDXrsb-90" style="edgeStyle=orthogonalEdgeStyle;orthogonalLoop=1;jettySize=auto;html=1;entryX=0;entryY=0.1;entryDx=0;entryDy=0;endArrow=none;endFill=0;dashed=1;exitX=1;exitY=0.5;exitDx=0;exitDy=0;startArrow=block;startFill=0;entryPerimeter=0;" edge="1" parent="1" source="NOSZl9h-h4cG2daDXrsb-89" target="NOSZl9h-h4cG2daDXrsb-33">
          <mxGeometry relative="1" as="geometry">
            <mxPoint x="325" y="-1125" as="sourcePoint" />
            <mxPoint x="500.0000000000002" y="-935" as="targetPoint" />
            <Array as="points">
              <mxPoint x="460" y="-1284" />
              <mxPoint x="460" y="-960" />
            </Array>
          </mxGeometry>
        </mxCell>
        <mxCell id="NOSZl9h-h4cG2daDXrsb-91" style="edgeStyle=orthogonalEdgeStyle;orthogonalLoop=1;jettySize=auto;html=1;entryX=1.004;entryY=0.159;entryDx=0;entryDy=0;endArrow=none;endFill=0;dashed=1;exitX=0;exitY=0.5;exitDx=0;exitDy=0;startArrow=block;startFill=0;entryPerimeter=0;" edge="1" parent="1" source="NOSZl9h-h4cG2daDXrsb-89" target="NOSZl9h-h4cG2daDXrsb-30">
          <mxGeometry relative="1" as="geometry">
            <mxPoint x="115" y="-1125" as="sourcePoint" />
            <mxPoint x="-30" y="-975" as="targetPoint" />
            <Array as="points">
              <mxPoint x="-20" y="-1285" />
              <mxPoint x="-20" y="-998" />
            </Array>
          </mxGeometry>
        </mxCell>
      </root>
    </mxGraphModel>
  </diagram>
</mxfile>
